<svg width="320" height="320" viewBox="0 0 320 320" fill="none" xmlns="http://www.w3.org/2000/svg">
<path d="M46.8629 273.137C75.4479 301.722 113.794 318.427 154.192 319.895C194.591 321.362 234.047 307.483 264.631 281.047C295.214 254.611 314.657 217.579 319.052 177.393C323.446 137.207 312.466 96.8476 288.319 64.4268C264.172 32.0061 228.647 9.92748 188.886 2.62915C149.125 -4.66918 108.075 3.35376 73.9882 25.0853C39.901 46.8168 15.3033 80.6459 5.13955 119.773C-5.0242 158.899 -0.000561487 200.423 19.2007 235.997L34.2943 227.85C17.1515 196.09 12.6664 159.017 21.7406 124.085C30.8148 89.1527 52.7756 58.95 83.2087 39.5481C113.642 20.1462 150.291 12.9833 185.79 19.4993C221.288 26.0152 253.005 45.727 274.563 74.6723C296.122 103.618 305.925 139.651 302.002 175.528C298.078 211.406 280.719 244.469 253.414 268.071C226.11 291.673 190.883 304.064 154.815 302.754C118.747 301.444 84.5118 286.529 58.9912 261.009L46.8629 273.137Z" fill="#6CBEEC"/>
</svg>
