<svg id="visual" viewBox="0 0 960 540" width="960" height="540" xmlns="http://www.w3.org/2000/svg" xmlns:xlink="http://www.w3.org/1999/xlink" version="1.1"><rect x="0" y="0" width="960" height="540" fill="#001C30"></rect><defs><linearGradient id="grad1_0" x1="43.8%" y1="0%" x2="100%" y2="100%"><stop offset="14.444444444444446%" stop-color="#6cbeec" stop-opacity="1"></stop><stop offset="85.55555555555554%" stop-color="#6cbeec" stop-opacity="1"></stop></linearGradient></defs><defs><linearGradient id="grad1_1" x1="43.8%" y1="0%" x2="100%" y2="100%"><stop offset="14.444444444444446%" stop-color="#6cbeec" stop-opacity="1"></stop><stop offset="85.55555555555554%" stop-color="#5ca4cf" stop-opacity="1"></stop></linearGradient></defs><defs><linearGradient id="grad1_2" x1="43.8%" y1="0%" x2="100%" y2="100%"><stop offset="14.444444444444446%" stop-color="#4c8bb2" stop-opacity="1"></stop><stop offset="85.55555555555554%" stop-color="#5ca4cf" stop-opacity="1"></stop></linearGradient></defs><defs><linearGradient id="grad1_3" x1="43.8%" y1="0%" x2="100%" y2="100%"><stop offset="14.444444444444446%" stop-color="#4c8bb2" stop-opacity="1"></stop><stop offset="85.55555555555554%" stop-color="#3c7296" stop-opacity="1"></stop></linearGradient></defs><defs><linearGradient id="grad1_4" x1="43.8%" y1="0%" x2="100%" y2="100%"><stop offset="14.444444444444446%" stop-color="#2d5b7b" stop-opacity="1"></stop><stop offset="85.55555555555554%" stop-color="#3c7296" stop-opacity="1"></stop></linearGradient></defs><defs><linearGradient id="grad1_5" x1="43.8%" y1="0%" x2="100%" y2="100%"><stop offset="14.444444444444446%" stop-color="#2d5b7b" stop-opacity="1"></stop><stop offset="85.55555555555554%" stop-color="#1d4561" stop-opacity="1"></stop></linearGradient></defs><defs><linearGradient id="grad1_6" x1="43.8%" y1="0%" x2="100%" y2="100%"><stop offset="14.444444444444446%" stop-color="#0d3048" stop-opacity="1"></stop><stop offset="85.55555555555554%" stop-color="#1d4561" stop-opacity="1"></stop></linearGradient></defs><defs><linearGradient id="grad1_7" x1="43.8%" y1="0%" x2="100%" y2="100%"><stop offset="14.444444444444446%" stop-color="#0d3048" stop-opacity="1"></stop><stop offset="85.55555555555554%" stop-color="#001c30" stop-opacity="1"></stop></linearGradient></defs><defs><linearGradient id="grad2_0" x1="0%" y1="0%" x2="56.3%" y2="100%"><stop offset="14.444444444444446%" stop-color="#6cbeec" stop-opacity="1"></stop><stop offset="85.55555555555554%" stop-color="#6cbeec" stop-opacity="1"></stop></linearGradient></defs><defs><linearGradient id="grad2_1" x1="0%" y1="0%" x2="56.3%" y2="100%"><stop offset="14.444444444444446%" stop-color="#5ca4cf" stop-opacity="1"></stop><stop offset="85.55555555555554%" stop-color="#6cbeec" stop-opacity="1"></stop></linearGradient></defs><defs><linearGradient id="grad2_2" x1="0%" y1="0%" x2="56.3%" y2="100%"><stop offset="14.444444444444446%" stop-color="#5ca4cf" stop-opacity="1"></stop><stop offset="85.55555555555554%" stop-color="#4c8bb2" stop-opacity="1"></stop></linearGradient></defs><defs><linearGradient id="grad2_3" x1="0%" y1="0%" x2="56.3%" y2="100%"><stop offset="14.444444444444446%" stop-color="#3c7296" stop-opacity="1"></stop><stop offset="85.55555555555554%" stop-color="#4c8bb2" stop-opacity="1"></stop></linearGradient></defs><defs><linearGradient id="grad2_4" x1="0%" y1="0%" x2="56.3%" y2="100%"><stop offset="14.444444444444446%" stop-color="#3c7296" stop-opacity="1"></stop><stop offset="85.55555555555554%" stop-color="#2d5b7b" stop-opacity="1"></stop></linearGradient></defs><defs><linearGradient id="grad2_5" x1="0%" y1="0%" x2="56.3%" y2="100%"><stop offset="14.444444444444446%" stop-color="#1d4561" stop-opacity="1"></stop><stop offset="85.55555555555554%" stop-color="#2d5b7b" stop-opacity="1"></stop></linearGradient></defs><defs><linearGradient id="grad2_6" x1="0%" y1="0%" x2="56.3%" y2="100%"><stop offset="14.444444444444446%" stop-color="#1d4561" stop-opacity="1"></stop><stop offset="85.55555555555554%" stop-color="#0d3048" stop-opacity="1"></stop></linearGradient></defs><defs><linearGradient id="grad2_7" x1="0%" y1="0%" x2="56.3%" y2="100%"><stop offset="14.444444444444446%" stop-color="#001c30" stop-opacity="1"></stop><stop offset="85.55555555555554%" stop-color="#0d3048" stop-opacity="1"></stop></linearGradient></defs><g transform="translate(960, 0)"><path d="M0 378C-68.9 369.7 -137.8 361.4 -189 327.4C-240.2 293.3 -273.7 233.4 -302.2 174.5C-330.8 115.6 -354.4 57.8 -378 0L0 0Z" fill="#05263c"></path><path d="M0 330.8C-60.3 323.5 -120.6 316.3 -165.4 286.4C-210.2 256.6 -239.5 204.2 -264.5 152.7C-289.4 101.2 -310.1 50.6 -330.7 0L0 0Z" fill="#153a54"></path><path d="M0 283.5C-51.7 277.3 -103.4 271.1 -141.7 245.5C-180.1 220 -205.3 175 -226.7 130.9C-248.1 86.7 -265.8 43.4 -283.5 0L0 0Z" fill="#25506e"></path><path d="M0 236.3C-43.1 231.1 -86.1 225.9 -118.1 204.6C-150.1 183.3 -171.1 145.9 -188.9 109.1C-206.7 72.3 -221.5 36.1 -236.2 0L0 0Z" fill="#356789"></path><path d="M0 189C-34.5 184.9 -68.9 180.7 -94.5 163.7C-120.1 146.6 -136.8 116.7 -151.1 87.3C-165.4 57.8 -177.2 28.9 -189 0L0 0Z" fill="#447ea4"></path><path d="M0 141.8C-25.8 138.6 -51.7 135.5 -70.9 122.8C-90.1 110 -102.6 87.5 -113.3 65.4C-124 43.4 -132.9 21.7 -141.7 0L0 0Z" fill="#5497c1"></path><path d="M0 94.5C-17.2 92.4 -34.5 90.4 -47.2 81.8C-60 73.3 -68.4 58.3 -75.6 43.6C-82.7 28.9 -88.6 14.5 -94.5 0L0 0Z" fill="#64b1dd"></path><path d="M0 47.3C-8.6 46.2 -17.2 45.2 -23.6 40.9C-30 36.7 -34.2 29.2 -37.8 21.8C-41.3 14.5 -44.3 7.2 -47.2 0L0 0Z" fill="#6cbeec"></path></g><g transform="translate(0, 540)"><path d="M0 -378C58.4 -355.3 116.7 -332.6 175.5 -304C234.3 -275.3 293.5 -240.7 327.4 -189C361.2 -137.3 369.6 -68.7 378 0L0 0Z" fill="#05263c"></path><path d="M0 -330.7C51.1 -310.9 102.1 -291.1 153.6 -266C205 -240.9 256.8 -210.6 286.4 -165.4C316 -120.2 323.4 -60.1 330.8 0L0 0Z" fill="#153a54"></path><path d="M0 -283.5C43.8 -266.5 87.5 -249.5 131.6 -228C175.7 -206.5 220.2 -180.5 245.5 -141.8C270.9 -103 277.2 -51.5 283.5 0L0 0Z" fill="#25506e"></path><path d="M0 -236.2C36.5 -222.1 72.9 -207.9 109.7 -190C146.4 -172.1 183.5 -150.4 204.6 -118.1C225.7 -85.8 231 -42.9 236.3 0L0 0Z" fill="#356789"></path><path d="M0 -189C29.2 -177.7 58.4 -166.3 87.7 -152C117.1 -137.7 146.8 -120.3 163.7 -94.5C180.6 -68.7 184.8 -34.3 189 0L0 0Z" fill="#447ea4"></path><path d="M0 -141.7C21.9 -133.2 43.8 -124.7 65.8 -114C87.9 -103.2 110.1 -90.2 122.8 -70.9C135.4 -51.5 138.6 -25.8 141.8 0L0 0Z" fill="#5497c1"></path><path d="M0 -94.5C14.6 -88.8 29.2 -83.2 43.9 -76C58.6 -68.8 73.4 -60.2 81.8 -47.3C90.3 -34.3 92.4 -17.2 94.5 0L0 0Z" fill="#64b1dd"></path><path d="M0 -47.2C7.3 -44.4 14.6 -41.6 21.9 -38C29.3 -34.4 36.7 -30.1 40.9 -23.6C45.1 -17.2 46.2 -8.6 47.3 0L0 0Z" fill="#6cbeec"></path></g></svg>