<svg width="38" height="38" viewBox="0 0 38 38" fill="none" xmlns="http://www.w3.org/2000/svg">
<path d="M31.6666 14.25V23.75C31.6666 28.2284 31.6666 30.4676 30.2754 31.8588C28.8842 33.25 26.645 33.25 22.1666 33.25H15.8333C11.355 33.25 9.1158 33.25 7.72456 31.8588C6.33331 30.4676 6.33331 28.2284 6.33331 23.75V14.25" stroke="white" stroke-width="2" stroke-linecap="round" stroke-linejoin="round"/>
<path d="M23.5 32V25.0333C23.5 22.8058 21.5972 21 19.25 21C16.9028 21 15 22.8058 15 25.0333V32" stroke="white" stroke-width="2" stroke-linecap="square"/>
<path d="M3.16669 15.8478L13.1483 8.04304C15.9584 5.84581 17.3634 4.74719 19 4.74719C20.6366 4.74719 22.0416 5.84581 24.8517 8.04304L34.8334 15.8478" stroke="white" stroke-width="2" stroke-linecap="round" stroke-linejoin="round"/>
</svg>
