<svg width="49" height="51" viewBox="0 0 49 51" fill="none" xmlns="http://www.w3.org/2000/svg">
<path d="M1 46.5V2.41421L8 9.41421V38C8 38.8284 8.67157 39.5 9.5 39.5H19.5C20.3284 39.5 21 38.8284 21 38V31.5096L28 38.8985V46.5H1ZM28.137 39.0431C28.1368 39.0429 28.1365 39.0426 28.1363 39.0424L28.137 39.0431L28.5 38.6992L28.137 39.0431Z" stroke="white" stroke-width="2"/>
<path d="M48 4.5V48.5858L41 41.5858V13C41 12.1716 40.3284 11.5 39.5 11.5H29.5C28.6716 11.5 28 12.1716 28 13V19.4904L21 12.1015V4.5H48ZM20.863 11.9569C20.8632 11.9571 20.8635 11.9574 20.8637 11.9576L20.863 11.9569L20.5 12.3008L20.863 11.9569Z" stroke="white" stroke-width="2"/>
</svg>
