<svg id="visual" viewBox="0 0 1440 900" width="1440" height="900" xmlns="http://www.w3.org/2000/svg" xmlns:xlink="http://www.w3.org/1999/xlink" version="1.1"><rect x="0" y="0" width="1440" height="900" fill="#001C30"></rect><defs><linearGradient id="grad1_0" x1="37.5%" y1="0%" x2="100%" y2="100%"><stop offset="17.999999999999996%" stop-color="#6cbeec" stop-opacity="1"></stop><stop offset="82%" stop-color="#6cbeec" stop-opacity="1"></stop></linearGradient></defs><defs><linearGradient id="grad1_1" x1="37.5%" y1="0%" x2="100%" y2="100%"><stop offset="17.999999999999996%" stop-color="#6cbeec" stop-opacity="1"></stop><stop offset="82%" stop-color="#5ca4cf" stop-opacity="1"></stop></linearGradient></defs><defs><linearGradient id="grad1_2" x1="37.5%" y1="0%" x2="100%" y2="100%"><stop offset="17.999999999999996%" stop-color="#4c8bb2" stop-opacity="1"></stop><stop offset="82%" stop-color="#5ca4cf" stop-opacity="1"></stop></linearGradient></defs><defs><linearGradient id="grad1_3" x1="37.5%" y1="0%" x2="100%" y2="100%"><stop offset="17.999999999999996%" stop-color="#4c8bb2" stop-opacity="1"></stop><stop offset="82%" stop-color="#3c7296" stop-opacity="1"></stop></linearGradient></defs><defs><linearGradient id="grad1_4" x1="37.5%" y1="0%" x2="100%" y2="100%"><stop offset="17.999999999999996%" stop-color="#2d5b7b" stop-opacity="1"></stop><stop offset="82%" stop-color="#3c7296" stop-opacity="1"></stop></linearGradient></defs><defs><linearGradient id="grad1_5" x1="37.5%" y1="0%" x2="100%" y2="100%"><stop offset="17.999999999999996%" stop-color="#2d5b7b" stop-opacity="1"></stop><stop offset="82%" stop-color="#1d4561" stop-opacity="1"></stop></linearGradient></defs><defs><linearGradient id="grad1_6" x1="37.5%" y1="0%" x2="100%" y2="100%"><stop offset="17.999999999999996%" stop-color="#0d3048" stop-opacity="1"></stop><stop offset="82%" stop-color="#1d4561" stop-opacity="1"></stop></linearGradient></defs><defs><linearGradient id="grad1_7" x1="37.5%" y1="0%" x2="100%" y2="100%"><stop offset="17.999999999999996%" stop-color="#0d3048" stop-opacity="1"></stop><stop offset="82%" stop-color="#001c30" stop-opacity="1"></stop></linearGradient></defs><defs><linearGradient id="grad2_0" x1="0%" y1="0%" x2="62.5%" y2="100%"><stop offset="17.999999999999996%" stop-color="#6cbeec" stop-opacity="1"></stop><stop offset="82%" stop-color="#6cbeec" stop-opacity="1"></stop></linearGradient></defs><defs><linearGradient id="grad2_1" x1="0%" y1="0%" x2="62.5%" y2="100%"><stop offset="17.999999999999996%" stop-color="#5ca4cf" stop-opacity="1"></stop><stop offset="82%" stop-color="#6cbeec" stop-opacity="1"></stop></linearGradient></defs><defs><linearGradient id="grad2_2" x1="0%" y1="0%" x2="62.5%" y2="100%"><stop offset="17.999999999999996%" stop-color="#5ca4cf" stop-opacity="1"></stop><stop offset="82%" stop-color="#4c8bb2" stop-opacity="1"></stop></linearGradient></defs><defs><linearGradient id="grad2_3" x1="0%" y1="0%" x2="62.5%" y2="100%"><stop offset="17.999999999999996%" stop-color="#3c7296" stop-opacity="1"></stop><stop offset="82%" stop-color="#4c8bb2" stop-opacity="1"></stop></linearGradient></defs><defs><linearGradient id="grad2_4" x1="0%" y1="0%" x2="62.5%" y2="100%"><stop offset="17.999999999999996%" stop-color="#3c7296" stop-opacity="1"></stop><stop offset="82%" stop-color="#2d5b7b" stop-opacity="1"></stop></linearGradient></defs><defs><linearGradient id="grad2_5" x1="0%" y1="0%" x2="62.5%" y2="100%"><stop offset="17.999999999999996%" stop-color="#1d4561" stop-opacity="1"></stop><stop offset="82%" stop-color="#2d5b7b" stop-opacity="1"></stop></linearGradient></defs><defs><linearGradient id="grad2_6" x1="0%" y1="0%" x2="62.5%" y2="100%"><stop offset="17.999999999999996%" stop-color="#1d4561" stop-opacity="1"></stop><stop offset="82%" stop-color="#0d3048" stop-opacity="1"></stop></linearGradient></defs><defs><linearGradient id="grad2_7" x1="0%" y1="0%" x2="62.5%" y2="100%"><stop offset="17.999999999999996%" stop-color="#001c30" stop-opacity="1"></stop><stop offset="82%" stop-color="#0d3048" stop-opacity="1"></stop></linearGradient></defs><g transform="translate(1440, 0)"><path d="M0 594.3C-98.4 570.3 -196.9 546.2 -288.5 499.7C-380.1 453.2 -464.9 384.2 -514.7 297.2C-564.5 210.1 -579.4 105.1 -594.3 0L0 0Z" fill="#05263c"></path><path d="M0 520C-86.1 499 -172.3 477.9 -252.4 437.2C-332.6 396.5 -406.8 336.2 -450.4 260C-494 183.9 -507 91.9 -520 0L0 0Z" fill="#153a54"></path><path d="M0 445.8C-73.8 427.7 -147.7 409.7 -216.4 374.8C-285.1 339.9 -348.7 288.1 -386 222.9C-423.4 157.6 -434.6 78.8 -445.8 0L0 0Z" fill="#25506e"></path><path d="M0 371.5C-61.5 356.4 -123.1 341.4 -180.3 312.3C-237.6 283.2 -290.6 240.1 -321.7 185.7C-352.8 131.3 -362.2 65.7 -371.5 0L0 0Z" fill="#356789"></path><path d="M0 297.2C-49.2 285.1 -98.4 273.1 -144.2 249.8C-190.1 226.6 -232.4 192.1 -257.4 148.6C-282.3 105.1 -289.7 52.5 -297.2 0L0 0Z" fill="#447ea4"></path><path d="M0 222.9C-36.9 213.9 -73.8 204.8 -108.2 187.4C-142.5 169.9 -174.3 144.1 -193 111.4C-211.7 78.8 -217.3 39.4 -222.9 0L0 0Z" fill="#5497c1"></path><path d="M0 148.6C-24.6 142.6 -49.2 136.6 -72.1 124.9C-95 113.3 -116.2 96 -128.7 74.3C-141.1 52.5 -144.9 26.3 -148.6 0L0 0Z" fill="#64b1dd"></path><path d="M0 74.3C-12.3 71.3 -24.6 68.3 -36.1 62.5C-47.5 56.6 -58.1 48 -64.3 37.1C-70.6 26.3 -72.4 13.1 -74.3 0L0 0Z" fill="#6cbeec"></path></g><g transform="translate(0, 900)"><path d="M0 -594.3C105.5 -579.7 211.1 -565.1 297.2 -514.7C383.3 -464.3 449.9 -378.2 496.2 -286.5C542.5 -194.8 568.4 -97.4 594.3 0L0 0Z" fill="#05263c"></path><path d="M0 -520C92.3 -507.2 184.7 -494.4 260 -450.4C335.4 -406.3 393.7 -331 434.2 -250.7C474.7 -170.4 497.4 -85.2 520 0L0 0Z" fill="#153a54"></path><path d="M0 -445.8C79.2 -434.8 158.3 -423.8 222.9 -386C287.5 -348.3 337.5 -283.7 372.2 -214.9C406.9 -146.1 426.3 -73 445.8 0L0 0Z" fill="#25506e"></path><path d="M0 -371.5C66 -362.3 131.9 -353.2 185.7 -321.7C239.5 -290.2 281.2 -236.4 310.1 -179.1C339.1 -121.7 355.3 -60.9 371.5 0L0 0Z" fill="#356789"></path><path d="M0 -297.2C52.8 -289.9 105.5 -282.5 148.6 -257.4C191.6 -232.2 225 -189.1 248.1 -143.3C271.3 -97.4 284.2 -48.7 297.2 0L0 0Z" fill="#447ea4"></path><path d="M0 -222.9C39.6 -217.4 79.2 -211.9 111.4 -193C143.7 -174.1 168.7 -141.8 186.1 -107.4C203.4 -73 213.2 -36.5 222.9 0L0 0Z" fill="#5497c1"></path><path d="M0 -148.6C26.4 -144.9 52.8 -141.3 74.3 -128.7C95.8 -116.1 112.5 -94.6 124.1 -71.6C135.6 -48.7 142.1 -24.3 148.6 0L0 0Z" fill="#64b1dd"></path><path d="M0 -74.3C13.2 -72.5 26.4 -70.6 37.1 -64.3C47.9 -58 56.2 -47.3 62 -35.8C67.8 -24.3 71.1 -12.2 74.3 0L0 0Z" fill="#6cbeec"></path></g></svg>