<svg id="visual" viewBox="0 0 1440 1024" width="1440" height="1024" xmlns="http://www.w3.org/2000/svg" xmlns:xlink="http://www.w3.org/1999/xlink" version="1.1"><rect x="0" y="0" width="1440" height="1024" fill="#001C30"></rect><defs><linearGradient id="grad1_0" x1="28.9%" y1="0%" x2="100%" y2="100%"><stop offset="21.875%" stop-color="#6cbeec" stop-opacity="1"></stop><stop offset="78.125%" stop-color="#6cbeec" stop-opacity="1"></stop></linearGradient></defs><defs><linearGradient id="grad1_1" x1="28.9%" y1="0%" x2="100%" y2="100%"><stop offset="21.875%" stop-color="#6cbeec" stop-opacity="1"></stop><stop offset="78.125%" stop-color="#5ca4cf" stop-opacity="1"></stop></linearGradient></defs><defs><linearGradient id="grad1_2" x1="28.9%" y1="0%" x2="100%" y2="100%"><stop offset="21.875%" stop-color="#4c8bb2" stop-opacity="1"></stop><stop offset="78.125%" stop-color="#5ca4cf" stop-opacity="1"></stop></linearGradient></defs><defs><linearGradient id="grad1_3" x1="28.9%" y1="0%" x2="100%" y2="100%"><stop offset="21.875%" stop-color="#4c8bb2" stop-opacity="1"></stop><stop offset="78.125%" stop-color="#3c7296" stop-opacity="1"></stop></linearGradient></defs><defs><linearGradient id="grad1_4" x1="28.9%" y1="0%" x2="100%" y2="100%"><stop offset="21.875%" stop-color="#2d5b7b" stop-opacity="1"></stop><stop offset="78.125%" stop-color="#3c7296" stop-opacity="1"></stop></linearGradient></defs><defs><linearGradient id="grad1_5" x1="28.9%" y1="0%" x2="100%" y2="100%"><stop offset="21.875%" stop-color="#2d5b7b" stop-opacity="1"></stop><stop offset="78.125%" stop-color="#1d4561" stop-opacity="1"></stop></linearGradient></defs><defs><linearGradient id="grad1_6" x1="28.9%" y1="0%" x2="100%" y2="100%"><stop offset="21.875%" stop-color="#0d3048" stop-opacity="1"></stop><stop offset="78.125%" stop-color="#1d4561" stop-opacity="1"></stop></linearGradient></defs><defs><linearGradient id="grad1_7" x1="28.9%" y1="0%" x2="100%" y2="100%"><stop offset="21.875%" stop-color="#0d3048" stop-opacity="1"></stop><stop offset="78.125%" stop-color="#001c30" stop-opacity="1"></stop></linearGradient></defs><defs><linearGradient id="grad2_0" x1="0%" y1="0%" x2="71.1%" y2="100%"><stop offset="21.875%" stop-color="#6cbeec" stop-opacity="1"></stop><stop offset="78.125%" stop-color="#6cbeec" stop-opacity="1"></stop></linearGradient></defs><defs><linearGradient id="grad2_1" x1="0%" y1="0%" x2="71.1%" y2="100%"><stop offset="21.875%" stop-color="#5ca4cf" stop-opacity="1"></stop><stop offset="78.125%" stop-color="#6cbeec" stop-opacity="1"></stop></linearGradient></defs><defs><linearGradient id="grad2_2" x1="0%" y1="0%" x2="71.1%" y2="100%"><stop offset="21.875%" stop-color="#5ca4cf" stop-opacity="1"></stop><stop offset="78.125%" stop-color="#4c8bb2" stop-opacity="1"></stop></linearGradient></defs><defs><linearGradient id="grad2_3" x1="0%" y1="0%" x2="71.1%" y2="100%"><stop offset="21.875%" stop-color="#3c7296" stop-opacity="1"></stop><stop offset="78.125%" stop-color="#4c8bb2" stop-opacity="1"></stop></linearGradient></defs><defs><linearGradient id="grad2_4" x1="0%" y1="0%" x2="71.1%" y2="100%"><stop offset="21.875%" stop-color="#3c7296" stop-opacity="1"></stop><stop offset="78.125%" stop-color="#2d5b7b" stop-opacity="1"></stop></linearGradient></defs><defs><linearGradient id="grad2_5" x1="0%" y1="0%" x2="71.1%" y2="100%"><stop offset="21.875%" stop-color="#1d4561" stop-opacity="1"></stop><stop offset="78.125%" stop-color="#2d5b7b" stop-opacity="1"></stop></linearGradient></defs><defs><linearGradient id="grad2_6" x1="0%" y1="0%" x2="71.1%" y2="100%"><stop offset="21.875%" stop-color="#1d4561" stop-opacity="1"></stop><stop offset="78.125%" stop-color="#0d3048" stop-opacity="1"></stop></linearGradient></defs><defs><linearGradient id="grad2_7" x1="0%" y1="0%" x2="71.1%" y2="100%"><stop offset="21.875%" stop-color="#001c30" stop-opacity="1"></stop><stop offset="78.125%" stop-color="#0d3048" stop-opacity="1"></stop></linearGradient></defs><g transform="translate(1440, 0)"><path d="M0 618.4C-95.4 581.2 -190.8 544 -287 497.1C-383.2 450.2 -480.2 393.7 -535.6 309.2C-591 224.8 -604.7 112.4 -618.4 0L0 0Z" fill="#05263c"></path><path d="M0 541.1C-83.5 508.6 -166.9 476 -251.1 435C-335.3 393.9 -420.2 344.5 -468.6 270.6C-517.1 196.7 -529.1 98.3 -541.1 0L0 0Z" fill="#153a54"></path><path d="M0 463.8C-71.5 435.9 -143.1 408 -215.2 372.8C-287.4 337.7 -360.2 295.3 -401.7 231.9C-443.2 168.6 -453.5 84.3 -463.8 0L0 0Z" fill="#25506e"></path><path d="M0 386.5C-59.6 363.3 -119.2 340 -179.4 310.7C-239.5 281.4 -300.1 246 -334.7 193.3C-369.3 140.5 -377.9 70.2 -386.5 0L0 0Z" fill="#356789"></path><path d="M0 309.2C-47.7 290.6 -95.4 272 -143.5 248.5C-191.6 225.1 -240.1 196.8 -267.8 154.6C-295.5 112.4 -302.3 56.2 -309.2 0L0 0Z" fill="#447ea4"></path><path d="M0 231.9C-35.8 218 -71.5 204 -107.6 186.4C-143.7 168.8 -180.1 147.6 -200.8 116C-221.6 84.3 -226.8 42.1 -231.9 0L0 0Z" fill="#5497c1"></path><path d="M0 154.6C-23.8 145.3 -47.7 136 -71.7 124.3C-95.8 112.6 -120.1 98.4 -133.9 77.3C-147.7 56.2 -151.2 28.1 -154.6 0L0 0Z" fill="#64b1dd"></path><path d="M0 77.3C-11.9 72.7 -23.8 68 -35.9 62.1C-47.9 56.3 -60 49.2 -66.9 38.7C-73.9 28.1 -75.6 14 -77.3 0L0 0Z" fill="#6cbeec"></path></g><g transform="translate(0, 1024)"><path d="M0 -618.4C116.7 -607.2 233.3 -595.9 309.2 -535.6C385.1 -475.3 420.3 -365.9 465.1 -268.5C509.8 -171.1 564.1 -85.5 618.4 0L0 0Z" fill="#05263c"></path><path d="M0 -541.1C102.1 -531.3 204.1 -521.4 270.6 -468.6C337 -415.9 367.8 -320.2 406.9 -234.9C446.1 -149.7 493.6 -74.8 541.1 0L0 0Z" fill="#153a54"></path><path d="M0 -463.8C87.5 -455.4 175 -446.9 231.9 -401.7C288.9 -356.5 315.2 -274.5 348.8 -201.4C382.4 -128.3 423.1 -64.1 463.8 0L0 0Z" fill="#25506e"></path><path d="M0 -386.5C72.9 -379.5 145.8 -372.4 193.3 -334.7C240.7 -297 262.7 -228.7 290.7 -167.8C318.6 -106.9 352.6 -53.5 386.5 0L0 0Z" fill="#356789"></path><path d="M0 -309.2C58.3 -303.6 116.7 -297.9 154.6 -267.8C192.6 -237.6 210.2 -183 232.5 -134.3C254.9 -85.5 282.1 -42.8 309.2 0L0 0Z" fill="#447ea4"></path><path d="M0 -231.9C43.7 -227.7 87.5 -223.5 116 -200.8C144.4 -178.2 157.6 -137.2 174.4 -100.7C191.2 -64.1 211.5 -32.1 231.9 0L0 0Z" fill="#5497c1"></path><path d="M0 -154.6C29.2 -151.8 58.3 -149 77.3 -133.9C96.3 -118.8 105.1 -91.5 116.3 -67.1C127.5 -42.8 141 -21.4 154.6 0L0 0Z" fill="#64b1dd"></path><path d="M0 -77.3C14.6 -75.9 29.2 -74.5 38.7 -66.9C48.1 -59.4 52.5 -45.7 58.1 -33.6C63.7 -21.4 70.5 -10.7 77.3 0L0 0Z" fill="#6cbeec"></path></g></svg>